<?xml version="1.0" ?><!DOCTYPE svg  PUBLIC '-//W3C//DTD SVG 1.1//EN'  'http://www.w3.org/Graphics/SVG/1.1/DTD/svg11.dtd'><svg enable-background="new 0 0 145 145" id="Layer_1" version="1.1" viewBox="0 0 145 145" xml:space="preserve" xmlns="http://www.w3.org/2000/svg" xmlns:xlink="http://www.w3.org/1999/xlink"><g><path d="M136.5,80.456c0,21.56-10.66,40.63-27,52.22c-7.09,5.04-15.24,8.66-24.06,10.47   c-0.27,0.06-0.55,0.11-0.82,0.16c-3.93,0.76-7.98,1.15-12.12,1.15c-6.98,0-13.7-1.12-19.98-3.18c-0.19-0.06-0.39-0.13-0.58-0.2   c-1.01-0.33-2.02-0.71-3-1.09c-0.05-0.02-0.09-0.04-0.14-0.06c-3.22-1.29-6.31-2.83-9.25-4.6c-0.59-0.35-1.17-0.71-1.74-1.08   c-2.08-1.34-4.08-2.81-5.98-4.37c-0.46-0.38-0.91-0.76-1.36-1.15c-1.58-1.39-3.1-2.84-4.54-4.37c-0.35-0.38-0.71-0.76-1.05-1.15   c-1.26-1.4-2.46-2.86-3.59-4.37c-0.29-0.38-0.57-0.76-0.84-1.15c-7.53-10.49-11.95-23.34-11.95-37.23   c0-10.09,2.34-19.63,6.51-28.11c1.08-2.22,2.29-4.37,3.62-6.44c4.39-6.85,10.06-12.8,16.67-17.53c0.23-0.17,0.47-0.34,0.7-0.49   c4.61-3.21,9.66-5.83,15.04-7.74c0.68-0.25,1.37-0.48,2.06-0.69c3.36-1.07,6.85-1.87,10.43-2.37c0.05-0.01,0.1-0.02,0.15-0.03   c0.32-0.04,0.64-0.08,0.96-0.12c1.47-0.18,2.95-0.31,4.44-0.39c0.93-0.05,1.87-0.08,2.81-0.09h1c0.03,0,0.05,0,0.08,0.01   c0.08-0.01,0.16-0.01,0.23,0c0.03-0.01,0.06-0.01,0.09,0c1.71,0.02,3.41,0.1,5.08,0.26c3.43,0.31,6.77,0.89,10.01,1.71   c0.5,0.13,1,0.27,1.5,0.41c0.43,0.12,0.85,0.24,1.27,0.38c0.33,0.09,0.65,0.19,0.97,0.3c1.47,0.47,2.91,0.99,4.33,1.57   c0.35,0.13,0.69,0.27,1.04,0.43c0.4,0.16,0.8,0.34,1.2,0.51c0.35,0.16,0.71,0.33,1.06,0.5c0.18,0.08,0.36,0.16,0.54,0.25   C121.72,33.126,136.5,55.066,136.5,80.456z" fill="#7CCEDC"/><g><rect fill="#464E58" height="9.021" width="9.021" x="68.113" y="39.492"/><path d="M54.811,102.45c-0.006,0.235-0.012,0.452-0.016,0.644c-0.01,0.471-0.121,0.928-0.292,1.367    c-0.148,0.376-0.237,0.923-0.289,1.47c-0.068,0.711-0.079,1.427-0.077,1.787c0,0.151-0.006,0.302-0.023,0.452    c-0.116,0.997-0.08,1.701-0.036,2.088c0.03,0.273,0.03,0.548,0.001,0.821c-0.609,5.633-1.582,14.117-1.582,14.117l1.151,1.847    l-3.537,8.779c-3.352,1.075-5.835-0.828-5.835-0.828c-2.933-2.014-3.391-5.327-3.462-6.251c-0.019-0.241-0.039-0.482-0.067-0.722    l-1.558-13.951c1.39-0.113,1.303-1.106,1.303-1.106c0.756,0,1.407-0.215,1.921-0.479c0.436-0.224,0.773-0.484,0.992-0.677    c0.218-0.192,0.458-0.356,0.712-0.494c0.157-0.084,0.308-0.174,0.453-0.269c2.784-1.799,3.593-5.191,3.821-6.71    c0.071-0.475,0.086-0.767,0.086-0.767l1.123-2.309l5.271-4.295C54.888,98.578,54.845,100.91,54.811,102.45z" fill="#F37C5A"/><path d="M96.617,33.297l-3.821,0.687l-4.539,5.856l1.333,10.339l3.796,2.544l2.083,2.61l2.036,5.266l7.027,0.283    C94.736,51.982,96.617,33.297,96.617,33.297z" fill="#464E58"/><path d="M95.75,52.778l-1.863-1.802l-2.107-1.893l-0.812-1.131l-0.196-6.412l-3.939,4.886l-4.825,1.519    l-4.978-0.91l-4.53-3.632l-0.325-0.305l0.219,3.938l-1.44,1.773v6.291l2.565,6.81l2.519,3.806c0,0,3.436,8.256,3.375,8.47    c-0.061,0.214,2.168-0.366,2.168-0.366l2.168-3.756l3.483-2.351l6.838-7.665l2.046-5.13L95.75,52.778z" fill="#F7BB52"/><polygon fill="#25313B" points="52.598,124.304 51.681,124.865 51.681,125.646 52.691,126.457 53.543,125.344   "/><path d="M121.71,109.126c0-0.01,0.01-0.02,0.02-0.03c0.62-0.76,0.34-1.68-0.05-2.36    c-0.32-0.56-0.71-0.96-0.71-0.96c-0.06-0.09-0.11-0.19-0.17-0.28c-0.97-1.57-1.55-3.34-1.73-5.16c-0.05-0.53-0.07-1.07-0.05-1.6    c0-0.09,0-0.18,0.01-0.27c0.72-14.26-0.32-20.63-1-23.14c-0.27-1.03-0.43-2.08-0.45-3.14c-0.06-2.63-0.8-3.76-1.12-4.14    c-0.16-0.18-0.31-0.37-0.41-0.59c-0.02-0.02-0.03-0.05-0.04-0.08c-0.13-0.27-0.23-0.55-0.29-0.79c-0.13-0.45-0.42-0.84-0.81-1.1    c0,0-0.01,0-0.01-0.01c-5.63-3.57-10.01-5.96-12.89-7.41c-1.59-0.81-2.72-1.33-3.35-1.61c-0.4-0.18-0.6-0.26-0.6-0.26l-2.02,0.6    l-0.76,0.22l-1.58,0.47l-0.64,2.29l-0.22,0.77l-0.2,0.72c0,0-0.33,0.54-0.76,1.23c-0.78,1.28-1.9,3.1-1.9,3.16    c0,0.05-1.07,0.72-2.2,1.43l-0.01,0.01c-1.29,0.8-2.67,1.64-2.67,1.64s-1.92,1.61-2.02,1.56c-0.12,0-1.51,2.84-1.51,2.84    l-0.83,0.3l-0.9,0.33l-0.02,0.01c0,0-1.16-3.69-1.23-3.98c-0.05-0.25-1.96-3.19-2.54-4.06c-0.01-0.02-0.02-0.05-0.04-0.07    l-0.08-0.12l-0.03-0.05l-0.09-0.12l-1.45-2.06c0,0-0.05-0.12-0.13-0.33c-0.01-0.01-0.01-0.02-0.01-0.02    c-0.46-1.15-1.88-4.73-1.88-4.81c0-0.03-0.25-0.73-0.59-1.7c-0.13-0.34-0.26-0.73-0.41-1.12c-0.13-0.35-0.26-0.71-0.39-1.08    c-0.67-1.82-1.31-3.6-1.31-3.6l-0.66,0.33l-0.89,0.44l-1.91,0.95c-0.68,0.33-1.33,0.72-1.94,1.17c-2.71,1.99-7.67,2.83-10.82,3.17    c-0.43,0.04-0.82,0.08-1.17,0.11c-1.04,0.09-1.69,0.11-1.69,0.11l-1.02,1.89l-13.19,17.84c-0.34,0.42-0.88,1.58-1.46,2.99    c-1.3,3.1-2.8,7.4-2.8,7.4c-1.07,1.6-1.91,3.34-2.45,4.57c-0.46,1.07-1.12,2.04-1.94,2.85c-3.53,3.48-4.21,5.62-4.34,6.44    c-0.03,0.16-0.06,0.33-0.1,0.49c-0.02,0.12-0.05,0.23-0.09,0.34c-0.42,1.38-0.26,2.66-0.07,3.45c0,0.02,0.01,0.04,0.01,0.06    c0.13,0.54,0.22,1.09,0.24,1.64c0.2,5.21,2.12,6.13,2.81,6.29c0.2,0.05,0.39,0.1,0.57,0.18c2.72,1.18,6.07,0.84,7.53,0.6    c0.47-0.07,0.95,0.11,1.26,0.47l1.03-0.45c0.32-0.14,0.68-0.17,1.02-0.09c0.69,0.16,1.21,0.21,1.62,0.17    c1.39-0.11,1.3-1.1,1.3-1.1c0.14,0,0.27-0.01,0.4-0.02l0.21-0.03c0.11-0.01,0.22-0.04,0.33-0.06c0.04-0.01,0.08-0.02,0.11-0.03    c0.13-0.04,0.25-0.07,0.36-0.12c0.04-0.01,0.07-0.02,0.1-0.04c0.1-0.03,0.2-0.08,0.29-0.12c0.04-0.02,0.08-0.04,0.11-0.06    c0.44-0.22,0.78-0.49,1-0.68c0.22-0.19,0.46-0.36,0.72-0.49c0.15-0.09,0.29-0.18,0.44-0.27h0.01c0.02-0.01,0.04-0.03,0.06-0.04    c0.13-0.09,0.25-0.17,0.37-0.26c0.02-0.02,0.04-0.04,0.07-0.05v-0.01c0.01,0,0.03-0.01,0.04-0.02c0.13-0.11,0.25-0.21,0.37-0.32    c0.32-0.29,0.6-0.6,0.85-0.92c0.11-0.14,0.21-0.28,0.31-0.43c0.1-0.14,0.2-0.3,0.29-0.45c0.35-0.58,0.62-1.17,0.83-1.74    c0.02-0.04,0.03-0.08,0.05-0.13c0-0.01,0-0.01,0-0.02c0.01-0.02,0.01-0.03,0.02-0.05c0.08-0.2,0.14-0.41,0.19-0.61    c0.02-0.06,0.04-0.13,0.06-0.19c0.03-0.09,0.05-0.18,0.07-0.27c0.01-0.04,0.02-0.08,0.03-0.11c0-0.01,0-0.02,0.01-0.03v-0.03    c0.01-0.04,0.02-0.08,0.03-0.12c0.03-0.12,0.05-0.23,0.07-0.33c0.02-0.1,0.03-0.19,0.05-0.27l0.03-0.18    c0.01-0.03,0.01-0.06,0.01-0.09l0.01-0.01c0-0.04,0.01-0.07,0.01-0.1c0.02-0.15,0.04-0.28,0.05-0.38c0.02-0.2,0.03-0.32,0.03-0.32    l1.12-2.31l5.27-4.29c0.01,0.61,0.01,1.32,0,2.05c-0.01,1.2-0.04,2.47-0.06,3.43c-0.01,0.24-0.01,0.46-0.02,0.65    c-0.01,0.47-0.12,0.93-0.29,1.36c-0.15,0.38-0.23,0.93-0.29,1.47c-0.06,0.72-0.08,1.43-0.07,1.79c0,0.15-0.01,0.3-0.03,0.45    c-0.11,1-0.08,1.71-0.03,2.09c0.03,0.28,0.03,0.55,0,0.82c-0.49,4.54-1.21,10.92-1.48,13.23c-0.06,0.57-0.1,0.89-0.1,0.89    l0.52,0.83l0.63,1.02l1.35,2.16l11.92,1.85l8.62,0.54c0,0,20.94-2.07,21.06-2.11c0.13-0.04,6.9-5.99,6.9-5.99l0.34-3.58    c0.74-1.02,0.48-2.61,0.48-2.61c0.93,2.45,3.48,3.66,4.52,4.06c0.26,0.1,0.51,0.22,0.74,0.37c0.82,0.57,1.83,0.73,2.43,0.76    c0.33,0.02,0.67,0.09,0.99,0.2c1.08,0.34,1.78,0.09,2.09-0.08c0.13-0.07,0.27-0.14,0.42-0.2c2.6-1.03,4.14-4.1,4.85-5.91    c0.12-0.3,0.22-0.56,0.29-0.78c0.12-0.36,0.3-0.7,0.54-0.99c0.3-0.34,0.5-0.71,0.63-1.08c0.43-1.26,0.05-2.59-0.28-3.38    C121.38,109.886,121.45,109.456,121.71,109.126z M102.1,111.256c-0.04-0.06-0.43-0.64-1.55-0.52c-0.25,0.02-0.53,0.08-0.84,0.19    c0,0,0.21-0.18,0.4-0.62c0.03-0.07,0.06-0.14,0.08-0.21c0.04-0.11,0.08-0.24,0.11-0.38l0.56-0.05l1.09-0.1    c0,0-0.16,0.19-0.17,0.56C101.78,110.396,101.84,110.776,102.1,111.256z" fill="#FFFFFF"/><path d="M72.991,41.334l-3.428-6.866c0,0-0.651-3.15-2.67-2.464c-2.019,0.687-2.302,9.127-2.302,9.127    c-0.113,4.681-0.967,7.305-1.078,7.628l7.294-3.007l0.924-3.693L72.991,41.334z" fill="#464E58"/><path d="M95.891,20.015c-0.386-0.513-0.889-0.923-1.447-1.24c-1.126-0.639-3.696-1.866-6.8-1.847    c-0.2,0.001-0.399-0.002-0.599-0.018c-1.242-0.1-6.506-0.453-13.6,0.062c-0.458,0.033-0.912,0.113-1.355,0.237    c-2.034,0.574-7.697,2.415-6.761,4.888c0,0,0.025,0.063,0.068,0.177c0.512-0.24,0.836-0.392,0.836-0.392h28.932l1.349,0.436    C96.617,21.786,96.595,20.95,95.891,20.015z" fill="none"/><path d="M89.875,16.284l5.148,2.249l3.149,1.949c0,0,0.845,2.39,0.772,2.619c-0.073,0.229-0.972,2.428-1.372,2.803    c-0.4,0.375-2.926,1.225-2.926,1.225l-3.677-6.148l-1.494-2.949L89.875,16.284z" fill="#464E58"/><path d="M96.515,22.318c-0.072,0.374-0.204,0.597-0.204,0.597l-2.509,5.63c0,0,0.817,0.379,3.326-0.729    c1.875-0.829,2.707-3.189,3.008-4.328L96.515,22.318z" fill="#DA664B"/><path d="M94.079,26.602l-2.64-6.799l-1.72-3.44l-9.599-1.12l-9.999,1.68l-1.151,8.719    c0,0-2.304,5.199,0.644,14.439c0,0,2.065,5.853,7.282,8.166c0.255,0.113,0.506,0.23,0.756,0.354    c0.995,0.492,4.49,1.766,9.589-1.32c0,0,5.12-2.8,6.319-9.079C93.559,38.201,94.759,31.881,94.079,26.602z" fill="#FDDA7F"/><ellipse cx="94.413" cy="32.755" fill="#FDDA7F" rx="5.633" ry="3.072" transform="matrix(0.3295 -0.9441 0.9441 0.3295 32.3762 111.1014)"/><path d="M67.084,26.58l-2.243-1.799c0,0-1.303-2.849-1.329-3.049c-0.026-0.2,3.822-3.499,3.822-3.499l3.004-0.79    l2.653-1.04L72.5,18.083L67.084,26.58z" fill="#464E58"/><path d="M65.914,29.536c0.304-0.304,0.507-0.695,0.574-1.12c0.341-2.167-0.795-5.363-1.089-6.142    c-1.113,0.523-3.116,1.464-4.618,2.174C61.978,28.398,65.914,29.536,65.914,29.536z" fill="#DA664B"/><ellipse cx="68.285" cy="32.755" fill="#FDDA7F" rx="5.633" ry="3.072" transform="matrix(-0.3295 -0.9441 0.9441 -0.3295 59.8607 108.02)"/><path d="M67.15,23.522c-2.12,2.44-1.08,3.64-1.08,3.64c-0.008,0.018-0.016,0.036-0.023,0.054    c-0.511,1.208,1.193,2.102,1.899,0.996c2.748-4.301,5.363-11.809,5.363-11.809C70.335,17.893,67.15,23.522,67.15,23.522z" fill="#464E58"/><path d="M90.788,16.403h-3.32c0,0,4.43,10.302,6.535,11.69c0,0,0.016,0.001,0.044,0.003    c1.574,0.104,2.548-1.688,1.618-2.961C94.219,23.156,91.729,19.473,90.788,16.403z" fill="#464E58"/><path d="M99.754,18.335v4.638l-2.101-1.08l-0.875-2.07l-3.326-2.217l-4.464-1.488c0,0-6.913-0.35-8.314-0.35    c-1.401,0-0.934,0-4.843,0s-3.938,0.7-3.938,0.7l-4.843,1.983l-3.647,2.597l-2.188,0.554v-3.413l1.546-0.145    c0,0,0-0.466,0.758-0.817c0,0,0.758-11.173,9.219-14.761c0,0,7.263-4.142,14.147-0.263c0,0,5.456,0.875,9.132,9.539    c0,0,0.875,2.742,1.283,5.048c0,0,0.905,0.612,1.05,1.546H99.754z" fill="#F37C5A"/><path d="M68.919,14.688c0,0-4.321,1.624-5.675,3.59v1.921h-0.34l-0.141-2.156c0,0,0-0.466,0.758-0.817    C63.521,17.226,65.827,14.628,68.919,14.688z" fill="#DA664B"/><path d="M97.576,20.516v-2.554c-1.37-2.118-5.712-3.885-5.712-3.885c3.198,0.54,5.438,2.713,5.438,2.713    s0.905,0.612,1.05,1.546l0.116,2.181H97.576z" fill="#DA664B"/><path d="M94.635,50.441c-2.405-2.754-3.667-2.489-3.667-2.489c-0.337,5.329,3.268,6.377,3.268,6.377    S94.722,52.346,94.635,50.441z" fill="#25313B"/><path d="M92.354,59.963l-0.743,1.31c0,0-0.873,1.267-1.179,1.834c0,0-1.092,0.262-2.446,2.053    c0,0-2.926,3.451-4.761,4.543c0,0-1.703,1.005-3.407,3.844l0.568,7.687l0.349-1.878c0,0,1.925-7.282,2.752-8.866    c0,0,2.402-1.791,4.892-2.184c0,0,0.961,0.131,1.965-2.184c0,0,3.666-5.46,4.301-6.77L92.354,59.963z" fill="#25313B"/><path d="M86.345,117.401c-2.549,1.871-6.615,1.791-6.615,1.791v2.145c6.647,0.645,6.324,2.968,6.324,2.968    c1.549-2.936,1.742-5.614,1.742-5.614c0.226-1.871,1.568-2.581,1.568-2.581C88.126,115.788,86.345,117.401,86.345,117.401z" fill="#F2F2F2"/><path d="M80.251,117.748c0-0.383-0.024-0.764-0.063-1.145c-0.582-5.616-0.5-11.871-0.5-11.871    c-0.187-1.788-0.113-3.756-0.027-5.016c0.063-0.931,0.047-1.866-0.041-2.795c-0.492-5.166,0.024-5.903,0.024-5.903    c0.786-1.878,1.267-6.464,1.267-6.464c0.48-5.634,0.218-8.997,0.218-8.997c-0.813-6.355-4.47-10.397-5.578-11.492    c-0.323-0.32-0.608-0.676-0.834-1.07c-1.087-1.904,0.515-1.939,0.515-1.939c-0.044-2.621-1.136-3.844-1.136-3.844l-2.009-1.878    h-1.75l-1.089,1.136c0.242,0.181,0.468,0.367,0.679,0.553c1.264,1.116,2.143,2.593,2.607,4.215    c0.561,1.956,1.562,2.745,1.562,2.745c1.142,0.811,1.881,2.15,2.083,2.549c0.048,0.093,0.098,0.185,0.147,0.277    c1.347,2.513,1.516,7.801,1.529,9.864c0.003,0.514-0.046,1.027-0.137,1.533c-0.479,2.687-0.479,5.432-0.479,5.432    c0.339,3.498-0.349,5.28-0.547,5.707c-0.041,0.089-0.083,0.178-0.117,0.271c-0.83,2.246-0.691,6.689-0.691,6.689    c0.349,2.839,0,6.857,0,6.857c0.175,3.538,0.524,11.924,0.524,11.924c0.044,3.669,0.743,11.924,0.743,11.924h3.756    c0.306-1.529-0.131-3.451-0.131-3.451C80.31,121.444,80.252,118.842,80.251,117.748z" fill="#DAD9D8"/><path d="M109.5,132.676c-7.09,5.04-15.24,8.66-24.06,10.47c-0.27,0.06-0.55,0.11-0.82,0.16    c-3.93,0.76-7.98,1.15-12.12,1.15c-6.98,0-13.7-1.12-19.98-3.18c-0.19-0.06-0.39-0.13-0.58-0.2c-1.01-0.33-2.02-0.71-3-1.09    c0.08-1.59,0.14-3.05,0.17-3.91c0.01-0.2,0.02-0.36,0.02-0.49c0,0,0.04-1.09,0.24-1.86c0.09-0.36,0.12-0.74,0.09-1.11    c-0.05-0.74,0.02-2.12,0.86-3.93c0,0,0.92-2.05,1.36-3.82c0,0,0.28,0.13,0.82,0.33c0.25,0.1,0.55,0.2,0.91,0.32    c2.36,0.77,7.04,1.92,13.51,1.76c0,0,4.84-0.16,10.19-0.75c1.29-0.14,2.61-0.3,3.9-0.5c1.16-0.17,2.29-0.37,3.35-0.59    c0.25-0.06,0.51-0.1,0.76-0.14c0.2-0.02,0.46-0.06,0.79-0.11c0.11-0.02,0.22-0.04,0.34-0.05c3.72-0.58,13.41-2.3,17.59-5.22    c0,0,3.18,3.59,4.02,7.67C107.86,127.586,108.8,130.116,109.5,132.676z" fill="#464E58"/><path d="M110.092,94.92c-0.037-0.324-0.154-0.594-0.277-0.799c-0.167-0.278-0.511-0.394-0.817-0.285    c-3.228,1.146-6.173,2.901-6.173,2.901l3.834,0.461c1.568-0.756,2.601-1.33,3.093-1.615    C109.987,95.447,110.123,95.187,110.092,94.92z" fill="#464E58"/><path d="M93.443,101.057l-1.687,1.419c0.342,0.308,0.534,0.69,0.62,1.125l4.063-1.197L93.443,101.057z" fill="#464E58"/><path d="M104.571,109.421l-1.963-0.292l-0.525,0.44c0,0-0.069,3.716,3.225,4.865l0.203-3.049L104.571,109.421z" fill="#DAD9D8"/><path d="M110.577,112.224c0,0-0.356,1.247-0.356,2.227c0,0,0.132,1.791-1.716,2.447    c-0.195,0.07-0.414-0.003-0.522-0.179c-0.321-0.519-1.148-1.611-2.697-2.178c-0.061-0.022-0.116-0.057-0.161-0.103    c-0.235-0.24-0.947-1.094-1.045-2.733c-0.007-0.122-0.06-0.237-0.153-0.315c-0.259-0.221-0.799-0.703-1.088-1.112    c-0.093-0.132-0.246-0.208-0.407-0.193c-0.45,0.044-1.382,0.107-2.239,0.015c-0.824-0.09-1.576-0.327-1.764-0.869    c0,0-0.421-1.097,0.115-1.514c0,0-0.273-0.03-0.59-0.169c-0.429-0.185-0.934-0.565-0.947-1.332c0,0-0.084-0.667,0.094-1.001    c0,0-1.607,0.263-2.001-1.203c0,0-0.334-1.215,0.215-1.608c0,0-1.919,0.251-2.145-1.311c0,0-1.418,0-1.109-1.334    c0,0,0.206-0.772,1.326-1.149c0.166-0.055,0.311-0.161,0.411-0.305c0.299-0.429,1.069-1.286,2.265-0.956    c0.148,0.041,0.292,0.099,0.427,0.172c0.145,0.078,0.588,0.247,1.648,0.199c0.171-0.009,0.337-0.071,0.472-0.177    c0.523-0.411,2.156-1.447,4.899-0.952c0.222,0.041,0.452,0.049,0.676,0.02c0.975-0.129,3.834-0.302,4.084,2.033    c0.02,0.183,0.084,0.358,0.19,0.507c0.485,0.674,1.774,2.674,1.093,3.985c-0.048,0.093-0.07,0.196-0.058,0.299    c0.003,0.026,0.007,0.054,0.014,0.08c0.078,0.288,0.193,0.881,0.14,1.732c-0.009,0.148,0.049,0.289,0.151,0.398    c0.16,0.171,0.366,0.632,0.328,1.857c0,0,0.031,0.594,0.446,1.306C110.577,108.808,111.2,110.204,110.577,112.224z" fill="#FDDA7F"/><path d="M96.898,97.652c0,0-0.076,0.039-0.207,0.111c-0.065,0.036-0.144,0.081-0.233,0.135    c-0.09,0.053-0.188,0.117-0.298,0.183c-0.107,0.069-0.225,0.142-0.345,0.226c-0.122,0.081-0.247,0.172-0.378,0.263    c-0.132,0.09-0.261,0.193-0.398,0.289c-0.133,0.102-0.269,0.204-0.402,0.31c-0.132,0.107-0.268,0.211-0.396,0.319    c-0.129,0.108-0.255,0.214-0.377,0.317c-0.121,0.105-0.238,0.206-0.349,0.302c-0.109,0.098-0.212,0.191-0.307,0.277    c-0.191,0.171-0.346,0.318-0.456,0.42c-0.111,0.101-0.174,0.159-0.174,0.159s0.056-0.065,0.154-0.178    c0.101-0.11,0.237-0.278,0.419-0.459c0.178-0.185,0.39-0.398,0.627-0.616c0.119-0.108,0.244-0.218,0.372-0.328    c0.128-0.111,0.264-0.216,0.396-0.326c0.135-0.106,0.274-0.207,0.409-0.309c0.138-0.097,0.274-0.194,0.409-0.282    c0.268-0.179,0.53-0.328,0.755-0.453c0.226-0.124,0.422-0.212,0.56-0.273C96.817,97.679,96.898,97.652,96.898,97.652z" fill="#F7BB52"/><path d="M95.316,102.404c0,0,0.146-0.084,0.402-0.231c0.129-0.072,0.285-0.16,0.464-0.261    c0.178-0.099,0.381-0.22,0.609-0.329c0.455-0.227,0.998-0.468,1.6-0.676c0.602-0.208,1.26-0.382,1.928-0.506    c0.334-0.062,0.671-0.107,1.003-0.145c0.333-0.037,0.657-0.059,0.971-0.091c0.629-0.06,1.216-0.111,1.717-0.17    c0.501-0.059,0.919-0.108,1.208-0.165c0.145-0.028,0.257-0.053,0.333-0.076c0.074-0.025,0.113-0.043,0.113-0.043    s-0.036,0.021-0.109,0.054c-0.074,0.03-0.184,0.07-0.327,0.107c-0.287,0.074-0.7,0.166-1.201,0.245    c-0.501,0.078-1.085,0.167-1.714,0.24c-0.631,0.076-1.298,0.131-1.955,0.259c-0.659,0.118-1.308,0.286-1.907,0.474    c-0.298,0.098-0.587,0.193-0.856,0.296c-0.27,0.102-0.521,0.205-0.752,0.308c-0.232,0.102-0.436,0.204-0.624,0.291    c-0.186,0.088-0.348,0.164-0.482,0.227C95.469,102.333,95.316,102.404,95.316,102.404z" fill="#F7BB52"/><path d="M97.103,105.215c0,0,0.025-0.022,0.072-0.064c0.049-0.04,0.119-0.1,0.216-0.167    c0.095-0.069,0.215-0.146,0.356-0.23c0.071-0.042,0.148-0.083,0.228-0.128c0.083-0.041,0.169-0.084,0.261-0.126    c0.185-0.082,0.389-0.166,0.611-0.234c0.111-0.035,0.225-0.071,0.344-0.098c0.059-0.015,0.119-0.03,0.18-0.045    c0.061-0.012,0.123-0.023,0.186-0.035c0.125-0.026,0.253-0.043,0.383-0.058c0.13-0.02,0.262-0.027,0.395-0.034    c0.257-0.013,0.525-0.042,0.789-0.067c0.531-0.048,1.06-0.107,1.556-0.165c0.248-0.03,0.487-0.06,0.714-0.092    c0.227-0.031,0.44-0.065,0.637-0.096c0.196-0.037,0.377-0.064,0.535-0.099c0.16-0.031,0.296-0.066,0.408-0.097    c0.114-0.027,0.198-0.061,0.258-0.08c0.06-0.02,0.091-0.031,0.091-0.031s-0.03,0.014-0.087,0.041    c-0.057,0.025-0.138,0.073-0.25,0.109c-0.11,0.042-0.244,0.09-0.402,0.136c-0.156,0.051-0.335,0.095-0.531,0.144    c-0.196,0.045-0.409,0.093-0.636,0.133c-0.226,0.043-0.466,0.085-0.714,0.121c-0.248,0.037-0.505,0.075-0.767,0.105    c-0.262,0.031-0.528,0.06-0.794,0.087c-0.268,0.022-0.532,0.049-0.8,0.06c-0.129,0.006-0.257,0.01-0.383,0.025    c-0.126,0.011-0.251,0.024-0.372,0.046c-0.061,0.01-0.121,0.019-0.181,0.028c-0.059,0.012-0.118,0.024-0.176,0.037    c-0.117,0.021-0.229,0.051-0.339,0.08c-0.219,0.057-0.423,0.125-0.609,0.193c-0.185,0.071-0.353,0.141-0.5,0.21    c-0.146,0.07-0.271,0.135-0.371,0.194C97.211,105.136,97.103,105.215,97.103,105.215z" fill="#F7BB52"/><path d="M98.544,107.717c0,0,0.113-0.002,0.31-0.015c0.197-0.011,0.477-0.039,0.813-0.076    c0.335-0.037,0.726-0.085,1.144-0.142c0.418-0.056,0.859-0.126,1.298-0.218c0.441-0.085,0.871-0.2,1.285-0.299    c0.413-0.098,0.803-0.175,1.14-0.223c0.168-0.026,0.324-0.043,0.462-0.054c0.138-0.011,0.259-0.018,0.358-0.018    c0.099-0.002,0.178,0.004,0.23,0.009c0.053,0.006,0.081,0.009,0.081,0.009s-0.114,0-0.309,0.024    c-0.195,0.022-0.471,0.077-0.799,0.152c-0.328,0.076-0.709,0.175-1.115,0.286c-0.203,0.054-0.412,0.12-0.629,0.174    c-0.217,0.055-0.438,0.107-0.66,0.153c-0.445,0.088-0.896,0.157-1.319,0.194c-0.422,0.041-0.818,0.066-1.157,0.076    c-0.34,0.012-0.623,0.001-0.821-0.007C98.656,107.734,98.544,107.717,98.544,107.717z" fill="#F7BB52"/><path d="M95.243,99.946c-0.463-0.205-1.266-0.224-2.276,1.111c-0.052,0.069-0.076,0.156-0.065,0.241    c0.021,0.178,0.121,0.487,0.516,0.791c0.077,0.059,0.177,0.083,0.273,0.063c0.453-0.095,1.821-0.449,2.031-1.287    C95.817,100.488,95.598,100.103,95.243,99.946z" fill="#F2F2F2"/><path d="M116.009,67.381c-2.986,3.903-5.048,8.439-6.322,11.823c-0.863,2.29-1.467,4.673-1.745,7.106    c-0.37,3.262-1.481,5.482-1.481,5.482c-1.358,2.809-1.136,4.359-1.136,4.359l-0.558,0.308c-0.291-1.969,0.896-3.99,0.896-3.99    c0.751-1.839-1.042-2.421-1.042-2.421c0.381-2.563-3.566-0.382-3.724-0.293c5.322-3.917,5.322,0.825,5.322,0.825    c0.716-1.712,0.974-3.304,1.056-4.424c0.139-1.88,0.432-3.747,0.921-5.568c0.487-1.807,0.902-2.928,1.142-3.509    c0.19-0.456,0.368-0.918,0.535-1.385c1.973-5.491,4-8.748,5.037-10.206c0.392,0.254,0.676,0.645,0.803,1.097    C115.784,66.826,115.879,67.104,116.009,67.381z" fill="#F2F2F2"/><path d="M91.249,103.281c-0.285-0.404-0.751-0.64-1.244-0.668c-1.506-0.086-5.423-0.128-4.427,1.853    c0.271,0.539,0.764,0.931,1.336,1.12c0.709,0.234,1.999,0.719,3.788,1.628c0,0-0.836-1.568,0.419-2.591    C91.121,104.624,91.802,104.066,91.249,103.281z" fill="#F2F2F2"/><path d="M91.757,102.476l-2.392,2.012l3.012-0.887C92.291,103.166,92.099,102.784,91.757,102.476z" fill="#25313B"/><path d="M119.071,100.339c-1.806-4.118-3.3-9.645-3.355-9.848c1.282,4.055,2.447,6.652,3.3,8.243    C118.999,99.271,119.018,99.807,119.071,100.339z" fill="#F2F2F2"/><path d="M109.497,103.435c0,0,0.047,0.021,0.134,0.06c0.087,0.041,0.215,0.101,0.37,0.191    c0.308,0.181,0.747,0.463,1.176,0.917c0.057,0.06,0.101,0.106,0.161,0.151c0.058,0.044,0.122,0.083,0.19,0.114    c0.068,0.031,0.141,0.056,0.217,0.072c0.073,0.017,0.159,0.023,0.247,0.034c0.352,0.045,0.72,0.104,1.098,0.191    c0.377,0.087,0.764,0.191,1.148,0.331c0.383,0.14,0.766,0.307,1.128,0.518l0.262,0.163c0.072,0.043,0.156,0.078,0.241,0.1    c0.086,0.023,0.173,0.029,0.278,0.038c0.1,0.008,0.2,0.016,0.299,0.023c0.398,0.026,0.79,0.05,1.17,0.056    c0.38,0.007,0.747,0.007,1.095-0.007c0.348-0.017,0.674-0.035,0.978-0.082c0.316-0.032,0.603-0.001,0.851,0.044    c0.249,0.045,0.459,0.108,0.629,0.167c0.085,0.029,0.16,0.058,0.223,0.087c0.064,0.027,0.118,0.051,0.161,0.072    c0.086,0.042,0.132,0.064,0.132,0.064s-0.048-0.017-0.138-0.049c-0.09-0.032-0.224-0.074-0.396-0.119    c-0.172-0.045-0.383-0.09-0.627-0.114c-0.243-0.023-0.522-0.03-0.814,0.015c-0.299,0.065-0.635,0.103-0.986,0.133    c-0.353,0.029-0.725,0.046-1.11,0.046c-0.385,0.001-0.783-0.006-1.187-0.032c-0.101-0.007-0.203-0.014-0.304-0.021    c-0.096-0.008-0.212-0.014-0.324-0.043c-0.112-0.028-0.218-0.07-0.322-0.131l-0.259-0.159c-0.342-0.203-0.708-0.367-1.078-0.506    c-0.371-0.137-0.744-0.254-1.111-0.346c-0.367-0.092-0.727-0.167-1.068-0.225c-0.085-0.015-0.172-0.024-0.265-0.049    c-0.09-0.023-0.176-0.056-0.255-0.098c-0.079-0.042-0.153-0.092-0.218-0.148c-0.065-0.055-0.126-0.125-0.171-0.179    c-0.389-0.46-0.79-0.779-1.082-0.98C109.678,103.532,109.497,103.435,109.497,103.435z" fill="#F2F2F2"/><path d="M111.838,105.062c0,0,0.037,0.036,0.104,0.106c0.066,0.071,0.164,0.174,0.279,0.314    c0.116,0.139,0.252,0.312,0.402,0.514c0.148,0.204,0.313,0.437,0.473,0.704c0.164,0.264,0.329,0.559,0.487,0.88    c0.159,0.32,0.309,0.667,0.443,1.034c0.129,0.368,0.256,0.753,0.342,1.156c0.097,0.4,0.154,0.815,0.201,1.23    c0.029,0.417,0.045,0.836,0.019,1.247c-0.006,0.103-0.012,0.205-0.018,0.307c-0.008,0.102-0.025,0.202-0.037,0.302    c-0.013,0.1-0.026,0.199-0.039,0.298c-0.019,0.098-0.038,0.195-0.057,0.291c-0.019,0.096-0.038,0.191-0.056,0.286    c-0.025,0.093-0.049,0.185-0.074,0.276c-0.025,0.091-0.049,0.181-0.073,0.269c-0.027,0.088-0.058,0.173-0.087,0.258    c-0.106,0.342-0.249,0.65-0.37,0.937c-0.07,0.139-0.138,0.272-0.202,0.399c-0.033,0.063-0.064,0.124-0.095,0.184    c-0.035,0.058-0.068,0.114-0.101,0.168c-0.133,0.215-0.237,0.409-0.345,0.554c-0.206,0.297-0.327,0.464-0.327,0.464    s0.1-0.181,0.278-0.493c0.095-0.153,0.183-0.354,0.297-0.576c0.028-0.056,0.056-0.114,0.086-0.173    c0.026-0.061,0.052-0.124,0.08-0.189c0.055-0.128,0.114-0.263,0.175-0.404c0.102-0.289,0.225-0.597,0.316-0.935    c0.024-0.084,0.051-0.168,0.074-0.255c0.02-0.087,0.04-0.176,0.06-0.265c0.021-0.089,0.042-0.18,0.063-0.271    c0.016-0.092,0.032-0.185,0.048-0.279c0.016-0.094,0.032-0.188,0.048-0.283c0.01-0.096,0.02-0.193,0.03-0.29    c0.025-0.194,0.034-0.392,0.043-0.591c0.022-0.399,0.003-0.804-0.028-1.208c-0.043-0.403-0.095-0.806-0.186-1.195    c-0.083-0.391-0.191-0.77-0.31-1.133c-0.125-0.36-0.255-0.706-0.398-1.027c-0.143-0.32-0.288-0.619-0.435-0.888    c-0.291-0.54-0.567-0.974-0.776-1.267c-0.105-0.146-0.187-0.262-0.246-0.338C111.871,105.102,111.838,105.062,111.838,105.062z" fill="#F2F2F2"/><path d="M109.229,116.522c-0.158,0.495-0.33,0.984-0.509,1.47c-0.041,0.121-0.1,0.248-0.114,0.351    c-0.021,0.114-0.02,0.231,0.003,0.343c0.022,0.112,0.066,0.218,0.127,0.314c0.06,0.095,0.143,0.168,0.241,0.262    c0.186,0.17,0.377,0.341,0.577,0.498c0.2,0.157,0.406,0.305,0.618,0.443c0.107,0.067,0.215,0.133,0.326,0.193    c0.111,0.06,0.223,0.118,0.337,0.171c0.113,0.055,0.23,0.102,0.347,0.146c0.117,0.045,0.238,0.078,0.358,0.114l0.047,0.014    l0.022,0.031c0.018,0.026,0.054,0.063,0.084,0.094c0.033,0.031,0.066,0.063,0.102,0.092c0.07,0.06,0.147,0.114,0.226,0.167    c0.08,0.05,0.161,0.1,0.245,0.146c0.041,0.024,0.085,0.043,0.128,0.065c0.042,0.022,0.086,0.042,0.131,0.061    c0.088,0.04,0.177,0.077,0.267,0.111c0.09,0.037,0.183,0.063,0.274,0.097c0.093,0.03,0.186,0.056,0.28,0.085l0.284,0.075    l-0.294-0.028c-0.097-0.015-0.195-0.029-0.292-0.047c-0.096-0.021-0.194-0.039-0.29-0.066c-0.096-0.025-0.192-0.051-0.286-0.085    c-0.048-0.015-0.095-0.032-0.141-0.051c-0.046-0.019-0.094-0.035-0.139-0.056c-0.092-0.04-0.183-0.083-0.272-0.133    c-0.088-0.051-0.175-0.104-0.258-0.166c-0.042-0.03-0.082-0.063-0.122-0.097c-0.041-0.037-0.076-0.067-0.119-0.119l0.069,0.045    c-0.131-0.029-0.26-0.063-0.387-0.105c-0.127-0.042-0.253-0.087-0.374-0.14c-0.245-0.103-0.479-0.232-0.704-0.371    c-0.111-0.071-0.222-0.143-0.33-0.22c-0.107-0.078-0.212-0.158-0.314-0.241c-0.204-0.167-0.402-0.339-0.588-0.528    c-0.047-0.049-0.088-0.087-0.139-0.144c-0.05-0.054-0.092-0.114-0.13-0.176c-0.073-0.126-0.126-0.265-0.144-0.409    c-0.02-0.143-0.012-0.289,0.023-0.428c0.037-0.152,0.099-0.257,0.152-0.376C108.767,117.451,108.991,116.984,109.229,116.522z" fill="#F2F2F2"/><path d="M121.541,110.272c-0.16-0.383-0.087-0.816,0.166-1.145c-0.487-0.744-1.244-1.752-1.979-2.137    c0,0-0.836-0.167,0.417,1.836c-0.077-0.049-2.557-1.629-7.371-2.518c0.231,0.07,3.986,1.217,6.899,3.133    c0,0,0.822,0.397,1.405,3.031c0.053,0.239,0.133,0.472,0.255,0.684c0.115,0.202,0.277,0.409,0.484,0.496    C122.248,112.395,121.866,111.063,121.541,110.272z" fill="#F2F2F2"/><path d="M114.272,113.652c0,0,0.095-0.052,0.262-0.143c0.165-0.092,0.397-0.228,0.666-0.403    c0.134-0.089,0.277-0.187,0.425-0.295c0.149-0.107,0.3-0.228,0.455-0.353c0.156-0.125,0.309-0.263,0.464-0.404    c0.158-0.141,0.3-0.289,0.463-0.443c0.169-0.152,0.351-0.288,0.544-0.401c0.193-0.115,0.406-0.191,0.616-0.241    c0.211-0.053,0.425-0.046,0.621-0.027c0.195,0.032,0.374,0.086,0.526,0.16c0.074,0.04,0.151,0.068,0.212,0.113    c0.063,0.042,0.123,0.082,0.179,0.12c0.105,0.085,0.194,0.16,0.263,0.226c0.132,0.139,0.204,0.219,0.204,0.219    s-0.088-0.063-0.241-0.174c-0.077-0.053-0.177-0.109-0.286-0.177c-0.117-0.057-0.245-0.124-0.393-0.172    c-0.147-0.052-0.312-0.082-0.485-0.099c-0.174-0.002-0.357,0.007-0.539,0.06c-0.364,0.099-0.721,0.325-1.021,0.604    c-0.153,0.14-0.314,0.302-0.476,0.441c-0.161,0.144-0.33,0.274-0.495,0.396c-0.331,0.245-0.661,0.442-0.954,0.59    c-0.292,0.149-0.547,0.248-0.727,0.312C114.376,113.622,114.272,113.652,114.272,113.652z" fill="#F2F2F2"/><path d="M113.628,118.13c0,0,0.023,0.019,0.074,0.038c0.049,0.022,0.127,0.042,0.226,0.053    c0.05,0.004,0.104,0.01,0.164,0.005c0.06,0,0.124-0.006,0.193-0.016c0.137-0.018,0.288-0.058,0.45-0.11    c0.161-0.055,0.333-0.125,0.509-0.211c0.09-0.039,0.178-0.088,0.268-0.139c0.09-0.051,0.185-0.097,0.275-0.156    c0.092-0.056,0.185-0.113,0.279-0.171c0.091-0.063,0.184-0.126,0.279-0.189c0.191-0.121,0.371-0.267,0.559-0.401    c0.198-0.138,0.377-0.273,0.588-0.394c0.051-0.03,0.101-0.063,0.152-0.091c0.052-0.026,0.105-0.052,0.156-0.078    c0.052-0.025,0.103-0.052,0.155-0.076c0.053-0.021,0.106-0.043,0.159-0.064c0.208-0.088,0.424-0.141,0.629-0.177    c0.103-0.016,0.206-0.024,0.304-0.028c0.099,0.005,0.194,0.001,0.285,0.018c0.183,0.017,0.342,0.077,0.477,0.133    c0.133,0.064,0.241,0.131,0.322,0.198c0.042,0.031,0.076,0.062,0.104,0.091c0.029,0.028,0.053,0.051,0.071,0.073    c0.036,0.041,0.056,0.063,0.056,0.063s-0.023-0.018-0.067-0.051c-0.044-0.032-0.109-0.079-0.197-0.127    c-0.086-0.052-0.199-0.098-0.329-0.142c-0.133-0.035-0.284-0.07-0.451-0.07c-0.167-0.007-0.348,0.017-0.534,0.057    c-0.186,0.047-0.379,0.11-0.571,0.2c-0.048,0.022-0.096,0.044-0.145,0.066c-0.048,0.024-0.095,0.052-0.143,0.078    c-0.096,0.052-0.192,0.106-0.285,0.167c-0.186,0.109-0.379,0.258-0.562,0.389c-0.194,0.134-0.379,0.28-0.578,0.402    c-0.097,0.063-0.195,0.125-0.292,0.185c-0.1,0.055-0.199,0.11-0.296,0.164c-0.096,0.056-0.196,0.102-0.293,0.146    c-0.097,0.046-0.192,0.09-0.289,0.124c-0.189,0.078-0.376,0.133-0.551,0.174c-0.175,0.039-0.34,0.06-0.487,0.06    c-0.073,0.001-0.142,0-0.205-0.011c-0.063-0.005-0.12-0.02-0.171-0.032c-0.102-0.027-0.176-0.065-0.222-0.095    C113.647,118.153,113.628,118.13,113.628,118.13z" fill="#F2F2F2"/><path d="M102.698,112.983c-0.101-0.467-0.322-0.903-0.651-1.249c-0.386-0.407-0.902-0.678-1.088,0.47    c-0.087,0.539-0.309,1.046-0.665,1.46c-0.012,0.014-0.024,0.028-0.037,0.043c-0.904,1.025-2.212,1.604-3.578,1.627    c-1.525,0.026-4.083-0.055-6.473-0.711c-0.232-0.064-0.469-0.108-0.71-0.118c-0.545-0.023-1.184,0.114,0.108,1.187    c0,0,0.811,0.387-0.756,4.743c0,0,2.619,0.908,7.693-1.88c0.299-0.165,0.596-0.337,0.877-0.532    c0.19-0.132,0.699-0.381,1.954-0.535c0.978-0.119,1.893-0.577,2.525-1.334C102.507,115.424,102.999,114.369,102.698,112.983z" fill="#F2F2F2"/><path d="M99.7,119.662c-0.222,0.049-7.167,1.595-13.446,5.47c-0.121,0.019-0.234,0.036-0.341,0.052    C87.007,124.068,90.883,120.804,99.7,119.662z" fill="#F2F2F2"/><path d="M103.253,115.304c0,0-0.613,1.806-1.646,2.968c0,0,1.355,0.003,1.839,1.389    C103.446,119.662,104.963,118.176,103.253,115.304z" fill="#F2F2F2"/><path d="M100.633,112.022c-0.048,0.189-0.16,0.354-0.305,0.484c-0.224,0.198-0.677,0.545-1.379,0.822    c-0.578,0.23-1.222-0.129-1.338-0.74c-0.188-0.992-0.497-2.466-0.846-3.481c-0.157-0.459-0.559-0.79-1.042-0.85    c-1.447-0.18-4.556-0.693-4.183-1.763c0,0,0.004-0.014,0.016-0.039c0.245-0.599,0.927-0.888,1.533-0.662    c0.519,0.193,1.238,0.508,1.876,0.956c0.751,0.53,1.648,0.815,2.567,0.811c0.14,0,0.28-0.004,0.423-0.012    c0.317,0.138,0.59,0.169,0.59,0.169c-0.536,0.417-0.115,1.514-0.115,1.514c0.188,0.542,0.94,0.779,1.764,0.869    c-0.202,0.596-0.488,0.827-0.488,0.827c0.318-0.106,0.597-0.166,0.841-0.192C100.627,111.011,100.752,111.564,100.633,112.022z" fill="#F2F2F2"/><path d="M94.993,109.568c0,0-0.89-1.169-3.236-1.395c0,0,0.493,4.098,3.236,6.55c0,0-2.017-3.29-2.186-4.743    C92.806,109.98,93.605,109.349,94.993,109.568z" fill="#F2F2F2"/><path d="M65.668,124.98c9.393-2.152,10.221,0.745,10.221,0.745l0.455-3.302    C70.716,121.148,65.668,124.98,65.668,124.98z" fill="none"/><path d="M58.669,110.837c-0.428-0.235-0.825-0.527-1.155-0.887c-2.233-2.438-1.443-6.294-1.528-6.35    c-0.488-0.32-0.881-0.748-1.175-1.151c-0.006,0.235-0.012,0.452-0.016,0.644c-0.01,0.471-0.121,0.928-0.292,1.367    c-0.148,0.376-0.237,0.923-0.289,1.47c0.461,1.138,1.131,2.362,1.77,3.424c0.941,1.563,2.403,2.739,4.126,3.338    c1.532,0.533,2.652,1.288,2.702,1.321C61.656,112.568,59.552,111.322,58.669,110.837z" fill="#F2F2F2"/><path d="M34.925,114.028c-0.363-0.633-0.738-1.257-1.126-1.875c-0.389-0.616-0.776-1.233-1.172-1.845l-1.188-1.835    c-0.196-0.305-0.41-0.608-0.573-0.95c-0.163-0.338-0.289-0.694-0.364-1.063c-0.076-0.368-0.109-0.746-0.089-1.123    c0.006-0.186,0.035-0.382,0.064-0.558c0.012-0.089,0.029-0.18,0.051-0.273c0.022-0.092,0.038-0.186,0.065-0.276    c0.096-0.362,0.233-0.712,0.399-1.047c0.167-0.334,0.368-0.653,0.6-0.945c0.465-0.586,1.042-1.074,1.671-1.464    c0.315-0.196,0.646-0.363,0.985-0.511c0.341-0.145,0.685-0.272,1.052-0.361l-0.036,0.017l0.221-0.146    c0.073-0.05,0.147-0.097,0.226-0.137l0.233-0.126c0.08-0.038,0.161-0.071,0.241-0.107l0.121-0.053l0.124-0.044    c0.083-0.028,0.165-0.059,0.249-0.084l0.254-0.067c0.084-0.025,0.171-0.037,0.256-0.055c0.086-0.018,0.171-0.034,0.258-0.044    c0.087-0.011,0.172-0.027,0.26-0.033l0.26-0.021l0.261-0.01c0.174,0,0.348,0.002,0.521,0.017c0.173,0.014,0.346,0.035,0.515,0.067    c-0.172-0.022-0.344-0.031-0.517-0.034c-0.173-0.003-0.345,0.002-0.517,0.011l-0.257,0.022l-0.256,0.033    c-0.085,0.01-0.169,0.03-0.254,0.045c-0.085,0.014-0.168,0.034-0.251,0.055c-0.083,0.022-0.167,0.037-0.248,0.066l-0.244,0.078    c-0.081,0.029-0.159,0.062-0.239,0.092l-0.119,0.047l-0.115,0.055c-0.076,0.037-0.154,0.073-0.229,0.111l-0.22,0.129    c-0.075,0.04-0.144,0.089-0.213,0.139l-0.207,0.147l-0.016,0.011l-0.02,0.006c-0.34,0.094-0.68,0.226-1.005,0.376    c-0.326,0.151-0.642,0.323-0.944,0.517c-0.603,0.386-1.147,0.865-1.583,1.427c-0.22,0.279-0.408,0.582-0.565,0.9    c-0.156,0.318-0.284,0.651-0.374,0.995c-0.084,0.336-0.157,0.7-0.175,1.047c-0.021,0.351,0.008,0.706,0.078,1.052    c0.071,0.346,0.183,0.683,0.332,1.005c0.146,0.32,0.349,0.619,0.543,0.929c0.389,0.618,0.768,1.241,1.146,1.865    c0.373,0.627,0.747,1.254,1.102,1.891C34.256,112.731,34.609,113.371,34.925,114.028z" fill="#F2F2F2"/><path d="M48.387,104.363c-0.234,1.532-1.05,4.894-3.817,6.681c-0.145,0.094-0.296,0.185-0.453,0.269    c-0.254,0.138-0.494,0.302-0.712,0.494c-0.219,0.193-0.556,0.453-0.992,0.677c-0.865-0.217-1.71-0.423-1.778-0.423    c-0.141,0-1.226-0.241-1.226-0.321v-0.649c0.302,0.125,0.516,0.18,0.516,0.18c1.119-0.559,2.137-1.658,2.559-2.149    c0.161-0.187,0.337-0.36,0.526-0.519c2.211-1.857,3.839-2.861,3.839-2.861C47.456,105.36,47.983,104.838,48.387,104.363z" fill="#DAD9D8"/><path d="M44.57,111.044c-0.145,0.094-0.296,0.185-0.453,0.269c-0.254,0.138-0.494,0.302-0.712,0.494    c-0.478,0.421-1.515,1.156-2.913,1.156c-0.235-0.362-0.385-0.392-0.385-0.392c-1.556-0.976-2.15-2.392-2.187-2.479    c0.737,0.849,2.004,1.178,2.004,1.178C41.562,111.863,43.467,111.415,44.57,111.044z" fill="#F2F2F2"/><path d="M27.194,103.629c0,0,0.736,0.782,0.851,0.989c0,0-2.138-1.264-2.92,0.276c0,0-0.529,0.828,0,3.632    c0,0,1.035-0.69,2.736-0.805c0,0-1.172,0.873-2.621,1.195c0,0,0.074,1.401,0.871,2.573c0.425,0.624,1.296,0.756,1.873,0.269    c0.379-0.32,0.753-0.828,0.938-1.632c0.058-0.251,0.083-0.508,0.091-0.766c0.022-0.65,0.166-2.423,1.077-3.204    C30.091,106.158,28.527,104.526,27.194,103.629z" fill="#F2F2F2"/><path d="M36.307,99.43c-2.678-1.138-6.723-0.812-6.723-0.812c-4.514,0.696-6.023,4.686-6.488,6.573    c-0.184-0.782-0.343-2.068,0.076-3.441c0.035-0.113,0.065-0.228,0.092-0.343c6.053-5.94,11.599-3.539,11.916-3.394    c-2.111-0.772-4.285,0.167-4.285,0.167C34.584,98.134,36.256,99.393,36.307,99.43z" fill="#F2F2F2"/><path d="M51.489,49.174c-0.019,0.342-0.064,0.682-0.135,1.019c-0.009,0.045-0.019,0.089-0.029,0.132    c-0.426,1.845-1.515,3.195-2.778,4.176c-1.701,1.319-3.719,1.969-4.857,2.252c-0.132,0.032-0.264,0.061-0.397,0.086    c-0.398,0.074-0.802,0.115-1.207,0.119c-1.361,0.015-2.547-0.08-3.58-0.259c-0.821-0.141-1.545-0.336-2.184-0.57    c-1.04-0.381-1.854-0.869-2.489-1.408c-0.27-0.229-0.509-0.469-0.719-0.713c-0.99-1.152-1.346-2.418-1.46-3.356    c-0.061-0.488-0.057-0.886-0.042-1.135c0.012-0.182,0.019-0.365,0.014-0.548c-0.164-5.444,5.157-7.473,7.287-8.064    c0.495-0.138,1.006-0.225,1.52-0.251c5.537-0.279,8.376,2.103,9.761,4.057c0.795,1.119,1.247,2.442,1.302,3.792    C51.504,48.726,51.502,48.95,51.489,49.174z" fill="#D15E47"/><path d="M51.489,49.174c-0.019,0.342-0.064,0.682-0.135,1.019c-0.009,0.045-0.019,0.089-0.029,0.132    c-0.426,1.845-1.515,3.195-2.778,4.176c-1.701,1.319-3.719,1.969-4.857,2.252c-0.132,0.032-0.264,0.061-0.397,0.086    c-0.398,0.074-0.802,0.115-1.207,0.119c-1.361,0.015-2.547-0.08-3.58-0.259c-0.821-0.141-1.545-0.336-2.184-0.57    c-1.04-0.381-1.854-0.869-2.489-1.408c-0.27-0.229-0.509-0.469-0.719-0.713c-0.616-0.94-0.865-1.902-0.956-2.65    c-0.06-0.476-0.055-0.864-0.042-1.106c0.012-0.177,0.019-0.356,0.015-0.535c-0.16-5.306,5.026-7.282,7.102-7.859    c0.482-0.134,0.979-0.219,1.481-0.244c5.398-0.273,8.164,2.049,9.514,3.954C50.984,46.633,51.421,47.89,51.489,49.174z" fill="#DA664B"/><path d="M54.209,78.753l-0.434,6.521l-4.589,6.748l-5.961,9.28l-5.216,0.415l-0.41,2.243l-5.947-53.309h0.001    c0.276,2.252,1.938,6.394,10.432,6.306c0.54-0.006,1.08-0.076,1.604-0.205c2.004-0.5,6.732-2.132,7.664-6.56    c0.118-0.559,0.164-1.126,0.141-1.69l0.004-0.001L54.209,78.753z" fill="#F37C5A"/><path d="M51.325,50.325c-0.426,1.845-1.515,3.195-2.778,4.176c-1.701,1.319-3.719,1.969-4.857,2.252    c-0.132,0.032-0.264,0.061-0.397,0.086c-0.398,0.074-0.802,0.115-1.207,0.119c-1.361,0.015-2.547-0.08-3.58-0.259l-1.312-5.171    l-1.296-5.087l5.543-1.991v-0.6C41.44,43.85,49.191,44.28,51.325,50.325z" fill="#D15E47"/><path d="M48.547,54.501c-1.701,1.319-3.719,1.969-4.857,2.252c-0.132,0.032-0.264,0.061-0.397,0.086l-1.133-4.446    l1.369,0.527v-0.721C43.528,52.199,47.052,53.178,48.547,54.501z" fill="#FFFFFF"/><path d="M38.505,56.699c-0.071-0.012-0.142-0.025-0.212-0.039c-0.052-0.009-0.105-0.019-0.155-0.029    c-0.01-0.001-0.019-0.003-0.029-0.006c-0.148-0.029-0.293-0.061-0.434-0.094c-0.045-0.01-0.089-0.02-0.132-0.032    c-0.067-0.016-0.132-0.032-0.196-0.049c-0.091-0.023-0.18-0.048-0.269-0.074c-0.062-0.017-0.122-0.035-0.183-0.054    c-0.019-0.006-0.038-0.012-0.055-0.018l-0.083-0.026c-0.064-0.02-0.128-0.041-0.19-0.063c-0.074-0.025-0.145-0.049-0.216-0.076    c-0.01-0.003-0.019-0.007-0.028-0.01c-1.04-0.381-1.854-0.869-2.489-1.408c0.477-0.729,1.911-2.762,3.361-3.194L38.505,56.699z" fill="#FFFFFF"/><path d="M63.5,48.795c-2.14,6.37-10.783,7.725-10.783,7.725c4.321,1.414,9.491-0.485,9.491-0.485    c-2.601,2.882-9.087,4.887-9.087,4.887c9.693-1.09,11.721-5.331,11.721-5.331c5.501-4.483,5.686-8.724,5.686-8.724l0.279-1.114    l-7.294,3.007C63.504,48.783,63.5,48.795,63.5,48.795z" fill="#464E58"/><path d="M100.278,22.856c0.642-2.26-3.662-4.142-5.273-4.759c-0.339-0.13-0.656-0.311-0.936-0.543    c-0.774-0.641-1.988-1.167-2.834-1.485c-0.551-0.207-1.115-0.372-1.69-0.497c-7.866-1.708-15.143-0.417-15.143-0.417    c-4.212,0.564-6.231,1.724-7.169,2.554c-0.675,0.597-1.442,1.078-2.283,1.402c-1.545,0.596-3.014,1.501-3.535,1.836    c-0.206,0.133-0.385,0.305-0.51,0.516c-0.622,1.046-0.214,2.678-0.214,2.678c0.027,0.105,0.058,0.207,0.088,0.309    c1.502-0.711,3.505-1.652,4.618-2.174c-0.043-0.114-0.068-0.177-0.068-0.177c-0.936-2.473,4.727-4.313,6.761-4.888    c0.442-0.125,0.896-0.204,1.355-0.237c7.094-0.516,12.358-0.162,13.6-0.062c0.199,0.016,0.399,0.019,0.599,0.018    c3.103-0.018,5.674,1.209,6.8,1.847c0.558,0.317,1.061,0.727,1.447,1.24c0.704,0.935,0.726,1.771,0.624,2.302l3.62,1.169    C100.237,23.102,100.278,22.856,100.278,22.856z" fill="#DA664B"/><path d="M102.105,111.258c0,0-0.004,0.104,0.035,0.279c0.017,0.087,0.049,0.191,0.087,0.308    c0.041,0.116,0.094,0.244,0.158,0.381c0.066,0.136,0.143,0.28,0.234,0.428c0.044,0.074,0.091,0.149,0.144,0.224    c0.051,0.075,0.102,0.153,0.159,0.228c0.108,0.157,0.235,0.299,0.36,0.464c0.126,0.161,0.251,0.338,0.36,0.517    c0.107,0.182,0.204,0.37,0.289,0.559c0.087,0.189,0.152,0.383,0.21,0.572c0.058,0.189,0.1,0.375,0.13,0.553    c0.033,0.177,0.049,0.348,0.059,0.504c0.021,0.311,0.016,0.57,0.009,0.751c-0.008,0.181-0.018,0.284-0.018,0.284    s-0.014-0.102-0.04-0.281c-0.025-0.178-0.063-0.433-0.117-0.734c-0.055-0.3-0.138-0.643-0.266-0.997    c-0.062-0.178-0.139-0.356-0.222-0.535c-0.084-0.178-0.179-0.355-0.283-0.526c-0.102-0.174-0.212-0.336-0.333-0.496    c-0.119-0.159-0.244-0.325-0.349-0.49c-0.055-0.081-0.106-0.164-0.151-0.247c-0.048-0.082-0.091-0.164-0.131-0.245    c-0.083-0.16-0.146-0.32-0.198-0.469c-0.053-0.149-0.087-0.29-0.111-0.415c-0.023-0.126-0.035-0.237-0.037-0.329    C102.077,111.359,102.105,111.258,102.105,111.258z" fill="#F2F2F2"/><path d="M98.687,56.513c-1.587-2.884-2.941-4.799-4.052-6.071c0.087,1.905-0.399,3.888-0.399,3.888    c-0.301,1.005-1.184,2.97-1.184,2.97c-1.223,2.49-1.441,3.975-1.441,3.975l1.616-0.961c2.752,4.892,5.46,7.119,5.46,7.119    C100.128,58.74,98.687,56.513,98.687,56.513z" fill="#25313B"/><path d="M72.393,47.035c0,0-2.856,1.525-4.819,5.303c-0.646,1.242-0.982,2.621-0.995,4.021    c-0.013,1.38,0.099,3.402,0.616,5.876c0,0,2.708-8.386,6.901-5.023C74.097,57.211,69.423,51.271,72.393,47.035z" fill="#25313B"/><path d="M58.335,92.68c-0.294,0.998-0.962,2.976-2.12,4.844c0,0-0.655,1.123-2.017,1.977    c-0.448,0.282-0.879,0.587-1.276,0.939c-0.708,0.631-1.884,1.626-2.957,2.307c-0.453,0.288-0.844,0.662-1.164,1.093    c-0.118,0.16-0.257,0.339-0.416,0.523c-0.404,0.475-0.931,0.997-1.54,1.379c0,0-1.627,1.004-3.839,2.861    c-0.189,0.158-0.365,0.331-0.526,0.519c-0.421,0.491-1.44,1.589-2.559,2.149c0,0-0.214-0.055-0.516-0.18    c-0.434-0.177-1.053-0.498-1.488-0.998v-0.001c-0.137-0.16-0.256-0.336-0.344-0.532c0,0-1.54-2.373-1.223-4.282    c0,0,0.71-3.766,2.691-5.674c0,0,0.437-0.123,0.145-2.079c0,0-0.288-1.738-0.866-3.426c-0.043-0.128-0.097-0.251-0.161-0.369    c-0.158-0.289-0.497-1.081-0.389-2.371c0.02-0.235-0.004-0.472-0.07-0.699c-0.075-0.269-0.212-0.664-0.461-1.22    c-0.057-0.125-0.121-0.247-0.192-0.365c-0.263-0.442-0.992-1.941-0.134-3.781l0.318-2.641c0,0,0.562-0.758,1.515,0.488    c0,0,1.688,1.884,1.444,4.453c0,0,0.757-0.049,1.125,2.299c0,0,0.147,0.562,1.003,0.881c0,0,1.174,0.465,2.569,0.465    c0,0,1.027-1.688,3.669-3.253c0,0,1.614-1.517,3.278-3.474c0,0,1.003-1.639,1.37-3.179c0,0,0.343-3.964,2.129-3.718l0.17,1.492    c0,0,1.582,1.158,1.62,4.475c0.004,0.321,0.055,0.641,0.158,0.946c0.201,0.59,0.551,1.722,0.864,3.24    c0.065,0.314,0.033,0.641-0.091,0.937l-0.373,0.895c0,0,0.498,0.167,0.741,1.667C58.501,91.737,58.469,92.221,58.335,92.68z" fill="#FDDA7F"/><path d="M37.918,83.361c-0.709-0.514-1.003-1.003-1.003-1.003c-0.636,3.816,0.881,3.155,0.881,3.155    C38.187,84.168,37.918,83.361,37.918,83.361z" fill="#F2F2F2"/><path d="M54.699,77.601c0,0-0.049,0.818,0.147,1.576c0,0,0.93,0.44,1.027,0.807    C55.873,79.985,56.264,76.368,54.699,77.601z" fill="#F2F2F2"/><path d="M55.666,78.753c0.239,0.342,0.207,1.232,0.207,1.232c0.233,0.024,0.577,0.773,0.577,0.773    C56.334,79.447,55.666,78.753,55.666,78.753z" fill="#F2F2F2"/><path d="M51.578,90.363c0,0,0.144-0.12,0.379-0.346c0.237-0.225,0.561-0.561,0.927-0.983    c0.183-0.212,0.377-0.444,0.573-0.697c0.098-0.127,0.199-0.256,0.297-0.393c0.099-0.136,0.202-0.273,0.301-0.417    c0.101-0.142,0.202-0.288,0.299-0.439c0.1-0.149,0.198-0.302,0.293-0.459c0.095-0.157,0.2-0.311,0.273-0.474    c0.077-0.164,0.134-0.337,0.172-0.514c0.038-0.175,0.057-0.364,0.087-0.548c0.029-0.184,0.058-0.368,0.086-0.549    c0.06-0.364,0.123-0.721,0.191-1.065c0.067-0.345,0.144-0.676,0.228-0.987c0.04-0.156,0.09-0.307,0.126-0.45    c0.037-0.145,0.064-0.287,0.084-0.424c0.038-0.274,0.043-0.531,0.049-0.758c0.004-0.227,0.001-0.426-0.005-0.589    c-0.01-0.327-0.022-0.513-0.022-0.513s0.025,0.185,0.051,0.512c0.012,0.163,0.024,0.362,0.03,0.59    c0.005,0.228,0.012,0.487-0.022,0.769c-0.016,0.141-0.04,0.287-0.074,0.436c-0.034,0.151-0.079,0.298-0.114,0.454    c-0.075,0.311-0.141,0.642-0.207,0.985c-0.065,0.343-0.125,0.7-0.181,1.063c-0.027,0.182-0.054,0.365-0.081,0.549    c-0.029,0.184-0.044,0.368-0.084,0.558c-0.042,0.188-0.104,0.371-0.187,0.543c-0.083,0.176-0.189,0.328-0.285,0.485    c-0.096,0.157-0.197,0.31-0.299,0.46c-0.099,0.151-0.202,0.298-0.305,0.44c-0.202,0.288-0.413,0.555-0.617,0.803    c-0.204,0.25-0.405,0.478-0.594,0.686c-0.189,0.208-0.371,0.39-0.535,0.549c-0.165,0.158-0.311,0.293-0.434,0.4    C51.73,90.254,51.578,90.363,51.578,90.363z" fill="#F7BB52"/><path d="M54.059,92.022c0,0,0.074-0.11,0.205-0.304c0.132-0.192,0.312-0.472,0.53-0.807    c0.109-0.167,0.224-0.35,0.345-0.544c0.119-0.195,0.244-0.401,0.374-0.614c0.127-0.214,0.259-0.435,0.385-0.664    c0.129-0.227,0.252-0.463,0.371-0.699c0.059-0.119,0.121-0.236,0.177-0.355c0.055-0.12,0.11-0.239,0.165-0.357    c0.098-0.241,0.203-0.476,0.267-0.712c0.067-0.237,0.115-0.47,0.142-0.695c0.03-0.224,0.03-0.439,0.043-0.64    c0.023-0.4,0.067-0.731,0.097-0.963c0.033-0.231,0.057-0.362,0.057-0.362s-0.011,0.133-0.029,0.365    c-0.019,0.232-0.034,0.564-0.044,0.963c-0.005,0.198,0.002,0.416-0.02,0.648c-0.02,0.231-0.058,0.474-0.126,0.718    c-0.064,0.247-0.167,0.487-0.264,0.732c-0.054,0.12-0.108,0.242-0.162,0.364c-0.056,0.121-0.117,0.24-0.175,0.361    c-0.124,0.237-0.25,0.473-0.383,0.7c-0.129,0.229-0.265,0.45-0.395,0.663c-0.131,0.214-0.265,0.415-0.392,0.605    c-0.129,0.19-0.251,0.369-0.366,0.532c-0.229,0.328-0.433,0.592-0.574,0.777C54.145,91.919,54.059,92.022,54.059,92.022z" fill="#F7BB52"/><path d="M55.494,94.675c0,0,0.023-0.084,0.068-0.228c0.047-0.144,0.109-0.352,0.196-0.596    c0.087-0.245,0.187-0.531,0.304-0.834c0.116-0.303,0.247-0.624,0.382-0.942c0.137-0.318,0.277-0.635,0.418-0.927    C56.93,91,57,90.859,57.068,90.727c0.068-0.132,0.132-0.258,0.191-0.373c0.119-0.231,0.228-0.418,0.303-0.55    c0.077-0.131,0.121-0.205,0.121-0.205s-0.035,0.079-0.095,0.218c-0.062,0.138-0.149,0.336-0.255,0.573    c-0.107,0.236-0.225,0.514-0.354,0.811c-0.128,0.297-0.264,0.614-0.401,0.932C56.036,93.403,55.494,94.675,55.494,94.675z" fill="#F7BB52"/></g></g></svg>